#!OML:ASF G:\ViconDB\ViconDB\414\test\team2\shane.ASF
:FULLY-SPECIFIED
:DEGREES
282
root 0.694775 17.027 11.0156 -6.4277 3.10247 -3.37193
lowerback 8.01925 1.51434 2.84846
upperback 5.94345 2.17018 4.40291
thorax 1.60094 1.09791 2.81533
lowerneck -4.23822 -9.47168 -14.3854
upperneck 36.7511 -8.35059 -8.30078
head 13.7245 -6.49417 -1.94292
rclavicle 2.5842e-015 3.18055e-015
rhumerus -11.9169 2.84552 -43.2456
rradius 117.475
rwrist 158.033
rhand -13.9917 19.2831
rfingers 7.12502
rthumb 12.1371 -10.3449
lclavicle 2.5842e-015 3.18055e-015
lhumerus -46.3914 -32.7716 103.498
lradius 41.273
lwrist -14.6885
lhand -39.9166 5.86012
lfingers 7.12502
lthumb -12.8874 35.4422
rfemur 17.7962 -12.6131 17.722
rtibia 14.9883
rfoot -18.6376 2.35096
rtoes -13.2933
lfemur -19.4821 11.3928 -12.064
ltibia 35.296
lfoot -29.0818 -13.6893
ltoes -13.3013
283
root 0.696493 17.0192 11.2019 -6.06475 2.41243 -3.24295
lowerback 8.93185 1.81354 2.93424
upperback 5.2159 2.65985 4.29022
thorax 0.336218 1.3396 2.56409
lowerneck -3.81499 -9.31857 -14.9738
upperneck 35.6305 -8.42116 -7.5862
head 13.2142 -6.47294 -1.48607
rclavicle 2.5842e-015 3.18055e-015
rhumerus -11.9169 2.84552 -43.2456
rradius 117.475
rwrist 158.033
rhand -13.9917 19.2831
rfingers 7.12502
rthumb 12.1371 -10.3449
lclavicle 2.5842e-015 3.18055e-015
lhumerus -46.3914 -32.7716 103.498
lradius 41.273
lwrist -14.6885
lhand -39.9166 5.86012
lfingers 7.12502
lthumb -12.8874 35.4422
rfemur 19.2821 -12.6026 17.4847
rtibia 12.3549
rfoot -17.7132 2.67765
rtoes -13.0731
lfemur -20.4033 11.9145 -12.2659
ltibia 33.7089
lfoot -29.2371 -14.7182
ltoes -13.5634
284
root 0.698557 17.0144 11.3844 -5.70831 1.80204 -3.19629
lowerback 8.07857 1.9264 2.51691
upperback 5.63515 2.71394 4.37726
thorax 1.21615 1.35926 2.9261
lowerneck -4.83229 -9.20497 -15.0632
upperneck 34.1873 -8.30634 -7.08664
head 12.8127 -6.32538 -1.23592
rclavicle 2.5842e-015 3.18055e-015
rhumerus -11.9169 2.84552 -43.2456
rradius 117.475
rwrist 158.033
rhand -13.9917 19.2831
rfingers 7.12502
rthumb 12.1371 -10.3449
lclavicle 2.5842e-015 3.18055e-015
lhumerus -46.3914 -32.7716 103.498
lradius 41.273
lwrist -14.6885
lhand -39.9166 5.86012
lfingers 7.12502
lthumb -12.8874 35.4422
rfemur 20.9111 -12.1507 17.5445
rtibia 9.25924
rfoot -16.5149 2.51525
rtoes -13.3896
lfemur -21.3095 11.7671 -12.2875
ltibia 32.337
lfoot -29.067 -15.0534
ltoes -13.4578
285
root 0.703769 17.0089 11.5683 -5.35492 1.25856 -3.20206
lowerback 8.07857 1.9264 2.51691
upperback 5.63515 2.71394 4.37726
thorax 1.21615 1.35926 2.9261
lowerneck -4.83229 -9.20497 -15.0632
upperneck 34.1873 -8.30634 -7.08664
head 12.8127 -6.32538 -1.23592
rclavicle 2.5842e-015 3.18055e-015
rhumerus -11.9169 2.84552 -43.2456
rradius 117.475
rwrist 158.033
rhand -13.9917 19.2831
rfingers 7.12502
rthumb 12.1371 -10.3449
lclavicle 2.5842e-015 3.18055e-015
lhumerus -46.3914 -32.7716 103.498
lradius 41.273
lwrist -14.6885
lhand -39.9166 5.86012
lfingers 7.12502
lthumb -12.8874 35.4422
rfemur 23.3554 -11.7574 17.6084
rtibia 4.39496
rfoot -14.3322 2.49344
rtoes -12.9547
lfemur -22.3327 11.9298 -12.3179
ltibia 31.2795
lfoot -28.7523 -15.7897
ltoes -13.5075
286
root 0.704863 16.995 11.748 -5.07845 0.771411 -3.37625
lowerback 8.07857 1.9264 2.51691
upperback 5.63515 2.71394 4.37726
thorax 1.21615 1.35926 2.9261
lowerneck -4.83229 -9.20497 -15.0632
upperneck 34.1873 -8.30634 -7.08664
head 12.8127 -6.32538 -1.23592
rclavicle 2.5842e-015 3.18055e-015
rhumerus -11.9169 2.84552 -43.2456
rradius 117.475
rwrist 158.033
rhand -13.9917 19.2831
rfingers 7.12502
rthumb 12.1371 -10.3449
lclavicle 2.5842e-015 3.18055e-015
lhumerus -46.3914 -32.7716 103.498
lradius 41.273
lwrist -14.6885
lhand -39.9166 5.86012
lfingers 7.12502
lthumb -12.8874 35.4422
rfemur 25.6741 -11.4534 17.8725
rtibia -1.59028e-014
rfoot -12.485 2.43262
rtoes -12.8523
lfemur -23.377 12.1917 -12.1661
ltibia 30.4576
lfoot -28.5814 -16.1782
ltoes -12.8646
